<svg viewBox="16.6400064 357.75936 222.72 253.44" xmlns="http://www.w3.org/2000/svg" data-name="Layer 1" id="Layer_1" style="max-height: 500px" width="222.72" height="253.44">
  <defs>
    <style>
      .cls-1, .cls-2 {
        fill-rule: evenodd;
      }

      .cls-1, .cls-2, .cls-3 {
        stroke-width: 0px;
      }

      .cls-2 {
        fill: #b3b3b3;
      }

      .cls-3 {
        fill: #ffa116;
      }
    </style>
  </defs>
  <g data-name="LeetCode’s-new-logo" id="LeetCode_s-new-logo">
    <g data-name="logo english dark" id="logo_english_dark">
      <g data-name="Logo English" id="Logo_English">
        <g id="Group-10">
          <path d="M161.1,533.78c4.94-4.93,12.94-4.92,17.86.03s4.91,12.96-.03,17.89l-21.94,21.9c-20.24,20.21-53.24,20.5-73.82.68-.12-.11-9.28-9.1-39.51-38.74-20.11-19.72-22.11-51.27-3.19-71.53l35.28-37.78c18.78-20.11,53.4-22.31,74.88-4.94l32.05,25.92c5.43,4.39,6.27,12.35,1.89,17.79-4.38,5.44-12.33,6.29-17.76,1.9l-32.05-25.92c-11.23-9.08-30.88-7.84-40.57,2.54l-35.28,37.78c-9.21,9.86-8.2,25.76,2.41,36.17,22.2,21.77,39.3,38.54,39.32,38.56,10.7,10.3,28,10.15,38.5-.34l21.94-21.9Z" class="cls-3" id="Combined-Shape"/>
          <path d="M107.81,511.86c-6.97,0-12.63-5.66-12.63-12.65s5.65-12.65,12.63-12.65h93.14c6.97,0,12.63,5.66,12.63,12.65s-5.65,12.65-12.63,12.65h-93.14Z" class="cls-2" id="Path-2"/>
          <path d="M125.25,373.23c4.77-5.1,12.76-5.37,17.85-.6,5.09,4.77,5.36,12.78.59,17.88l-84.78,90.77c-9.21,9.86-8.2,25.75,2.41,36.17l39.15,38.39c4.98,4.89,5.07,12.9.19,17.89-4.88,4.99-12.88,5.08-17.86.19l-39.15-38.39c-20.11-19.72-22.11-51.27-3.19-71.53l84.78-90.77Z" class="cls-1" id="Stroke-3"/>
        </g>
        <path d="M288.68,446.25v83.26c0,3.2,1.13,5.93,3.4,8.2s5,3.4,8.2,3.4h22.52c1.96,0,3.64.7,5.03,2.09s2.09,3.07,2.09,5.03v.15c0,1.96-.7,3.61-2.09,4.95-1.39,1.39-3.07,2.09-5.03,2.09h-22.52c-7.17,0-13.28-2.53-18.34-7.58s-7.58-11.17-7.58-18.34v-83.26c0-1.96.7-3.64,2.09-5.03,1.39-1.34,3.04-2.01,4.95-2.01h.23c1.91,0,3.56.67,4.95,2.01,1.39,1.39,2.09,3.07,2.09,5.03ZM378.37,485.4c-7.74,0-14.34,2.73-19.81,8.2-5.42,5.47-8.13,12.07-8.13,19.81,0,1.39.1,2.76.31,4.1l48.98-22.13c-5.57-6.65-12.69-9.98-21.36-9.98ZM416.75,495.62c.83,1.75.9,3.56.23,5.42-.67,1.81-1.91,3.12-3.71,3.95-7.22,3.25-16.71,7.53-28.48,12.85-14.6,6.6-24.07,10.88-28.4,12.85,5.57,7.12,12.9,10.68,21.98,10.68,6.04,0,11.5-1.78,16.4-5.34,4.75-3.46,8.07-7.94,9.98-13.46,1.13-3.2,3.4-4.8,6.81-4.8,2.42,0,4.36,1.01,5.8,3.02,1.39,1.96,1.68,4.1.85,6.42-2.89,8.36-7.94,15.12-15.17,20.27-7.38,5.31-15.61,7.97-24.68,7.97-11.66,0-21.62-4.13-29.87-12.38s-12.38-18.21-12.38-29.87,4.13-21.62,12.38-29.87,18.21-12.38,29.87-12.38c8.41,0,16.1,2.3,23.06,6.89,6.86,4.49,11.97,10.42,15.32,17.8ZM472.54,485.4c-7.74,0-14.34,2.73-19.81,8.2-5.42,5.47-8.13,12.07-8.13,19.81,0,1.39.1,2.76.31,4.1l48.98-22.13c-5.57-6.65-12.69-9.98-21.36-9.98ZM510.92,495.62c.83,1.75.9,3.56.23,5.42-.67,1.81-1.91,3.12-3.71,3.95-7.22,3.25-16.71,7.53-28.48,12.85-14.6,6.6-24.07,10.88-28.4,12.85,5.57,7.12,12.9,10.68,21.98,10.68,6.04,0,11.5-1.78,16.4-5.34,4.75-3.46,8.07-7.94,9.98-13.46,1.13-3.2,3.4-4.8,6.81-4.8,2.42,0,4.36,1.01,5.8,3.02,1.39,1.96,1.68,4.1.85,6.42-2.89,8.36-7.94,15.12-15.17,20.27-7.38,5.31-15.61,7.97-24.68,7.97-11.66,0-21.62-4.13-29.87-12.38s-12.38-18.21-12.38-29.87,4.13-21.62,12.38-29.87c8.25-8.25,18.21-12.38,29.87-12.38,8.41,0,16.1,2.3,23.06,6.89,6.86,4.49,11.97,10.42,15.32,17.8ZM534.06,439.21c1.91,0,3.56.67,4.95,2.01,1.39,1.39,2.09,3.07,2.09,5.03v24.68h13.93c1.91,0,3.56.7,4.95,2.09s2.09,3.07,2.09,5.03v.15c0,1.96-.7,3.61-2.09,4.95-1.39,1.39-3.04,2.09-4.95,2.09h-13.93v48.21c0,2.12.75,3.92,2.24,5.42s3.33,2.24,5.49,2.24h6.19c1.91,0,3.56.7,4.95,2.09s2.09,3.07,2.09,5.03v.15c0,1.96-.7,3.61-2.09,4.95-1.39,1.39-3.04,2.09-4.95,2.09h-6.19c-6.09,0-11.3-2.14-15.63-6.42-4.28-4.33-6.42-9.52-6.42-15.55v-87.21c0-1.96.7-3.64,2.09-5.03,1.39-1.34,3.04-2.01,4.95-2.01h.23ZM629.08,439.21c4.9,0,9.72.59,14.47,1.78,3.56.93,5.34,3.2,5.34,6.81v.23c0,2.27-.93,4.13-2.79,5.57-1.81,1.39-3.82,1.81-6.04,1.24-3.61-.93-7.27-1.39-10.99-1.39-12.07,0-22.39,4.28-30.95,12.85s-12.85,18.91-12.85,31.03,4.28,22.47,12.85,31.03c8.56,8.51,18.88,12.77,30.95,12.77,3.71,0,7.38-.44,10.99-1.32,2.22-.57,4.23-.15,6.04,1.24,1.86,1.39,2.79,3.25,2.79,5.57v.15c0,3.66-1.78,5.96-5.34,6.89-4.75,1.19-9.57,1.78-14.47,1.78-16.04,0-29.74-5.67-41.09-17.02-11.35-11.35-17.02-25.05-17.02-41.09s5.67-29.74,17.02-41.09c11.35-11.35,25.05-17.02,41.09-17.02ZM701.2,485.4c-7.74,0-14.34,2.73-19.81,8.2-5.42,5.47-8.13,12.07-8.13,19.81s2.71,14.26,8.13,19.73c5.47,5.47,12.07,8.2,19.81,8.2s14.32-2.73,19.73-8.2c5.47-5.47,8.2-12.05,8.2-19.73s-2.73-14.34-8.2-19.81c-5.42-5.47-11.99-8.2-19.73-8.2ZM701.2,470.93c11.66,0,21.62,4.13,29.87,12.38,8.25,8.25,12.38,18.21,12.38,29.87s-4.13,21.62-12.38,29.87-18.21,12.38-29.87,12.38-21.62-4.13-29.87-12.38-12.38-18.21-12.38-29.87,4.13-21.62,12.38-29.87c8.25-8.25,18.21-12.38,29.87-12.38ZM796.54,485.4c-7.74,0-14.34,2.73-19.81,8.2-5.42,5.47-8.13,12.07-8.13,19.81s2.71,14.26,8.13,19.73c5.47,5.47,12.07,8.2,19.81,8.2s14.32-2.73,19.73-8.2c5.47-5.47,8.2-12.05,8.2-19.73s-2.73-14.34-8.2-19.81c-5.42-5.47-11.99-8.2-19.73-8.2ZM831.75,439.21c1.91,0,3.56.67,4.95,2.01,1.39,1.39,2.09,3.07,2.09,5.03v67.17c-.05,11.61-4.2,21.51-12.46,29.71-8.25,8.2-18.18,12.3-29.79,12.3s-21.62-4.13-29.87-12.38c-8.25-8.25-12.38-18.21-12.38-29.87s4.13-21.62,12.38-29.87c8.25-8.25,18.21-12.38,29.87-12.38,10.63,0,19.94,3.53,27.93,10.6v-35.29c0-1.96.7-3.64,2.09-5.03,1.39-1.34,3.04-2.01,4.95-2.01h.23ZM894.19,485.4c-7.74,0-14.34,2.73-19.81,8.2-5.42,5.47-8.13,12.07-8.13,19.81,0,1.39.1,2.76.31,4.1l48.98-22.13c-5.57-6.65-12.69-9.98-21.36-9.98ZM932.57,495.62c.83,1.75.9,3.56.23,5.42-.67,1.81-1.91,3.12-3.71,3.95-7.22,3.25-16.71,7.53-28.48,12.85-14.6,6.6-24.07,10.88-28.4,12.85,5.57,7.12,12.9,10.68,21.98,10.68,6.04,0,11.5-1.78,16.4-5.34,4.75-3.46,8.07-7.94,9.98-13.46,1.13-3.2,3.4-4.8,6.81-4.8,2.42,0,4.36,1.01,5.8,3.02,1.39,1.96,1.68,4.1.85,6.42-2.89,8.36-7.94,15.12-15.17,20.27-7.38,5.31-15.61,7.97-24.68,7.97-11.66,0-21.62-4.13-29.87-12.38s-12.38-18.21-12.38-29.87,4.13-21.62,12.38-29.87c8.25-8.25,18.21-12.38,29.87-12.38,8.41,0,16.1,2.3,23.06,6.89,6.86,4.49,11.97,10.42,15.32,17.8Z" class="cls-1" id="LeetCode"/>
      </g>
    </g>
  </g>
</svg>